<svg xmlns="http://www.w3.org/2000/svg" xmlns:xlink="http://www.w3.org/1999/xlink" width="500" zoomAndPan="magnify" viewBox="0 0 375 374.999991" height="500" preserveAspectRatio="xMidYMid meet" version="1.0"><defs><g/></defs><rect x="-37.5" width="450" fill="#ffffff" y="-37.499999" height="449.999989" fill-opacity="1"/><rect x="-37.5" width="450" fill="#050a30" y="-37.499999" height="449.999989" fill-opacity="1"/><g fill="#000000" fill-opacity="0.4"><g transform="translate(40.68154, 263.949047)"><g><path d="M 157.953125 -84.234375 C 157.953125 -57.023438 150.207031 -36.179688 134.71875 -21.703125 C 119.226562 -7.234375 96.859375 0 67.609375 0 L 20.796875 0 L 20.796875 -165.3125 L 72.703125 -165.3125 C 99.691406 -165.3125 120.644531 -158.1875 135.5625 -143.9375 C 150.488281 -129.6875 157.953125 -109.785156 157.953125 -84.234375 Z M 121.546875 -83.328125 C 121.546875 -118.828125 105.867188 -136.578125 74.515625 -136.578125 L 55.859375 -136.578125 L 55.859375 -28.953125 L 70.890625 -28.953125 C 104.660156 -28.953125 121.546875 -47.078125 121.546875 -83.328125 Z M 121.546875 -83.328125 "/></g></g></g><g fill="#5e17eb" fill-opacity="1"><g transform="translate(30.447432, 253.714936)"><g><path d="M 157.953125 -84.234375 C 157.953125 -57.023438 150.207031 -36.179688 134.71875 -21.703125 C 119.226562 -7.234375 96.859375 0 67.609375 0 L 20.796875 0 L 20.796875 -165.3125 L 72.703125 -165.3125 C 99.691406 -165.3125 120.644531 -158.1875 135.5625 -143.9375 C 150.488281 -129.6875 157.953125 -109.785156 157.953125 -84.234375 Z M 121.546875 -83.328125 C 121.546875 -118.828125 105.867188 -136.578125 74.515625 -136.578125 L 55.859375 -136.578125 L 55.859375 -28.953125 L 70.890625 -28.953125 C 104.660156 -28.953125 121.546875 -47.078125 121.546875 -83.328125 Z M 121.546875 -83.328125 "/></g></g></g><g fill="#000000" fill-opacity="0.4"><g transform="translate(183.695061, 269.783331)"><g><path d="M 22.015625 -174.90625 L 76.453125 -174.90625 C 101.253906 -174.90625 119.253906 -171.375 130.453125 -164.3125 C 141.660156 -157.257812 147.265625 -146.035156 147.265625 -130.640625 C 147.265625 -120.191406 144.8125 -111.617188 139.90625 -104.921875 C 135.007812 -98.222656 128.492188 -94.195312 120.359375 -92.84375 L 120.359375 -91.640625 C 131.441406 -89.171875 139.4375 -84.546875 144.34375 -77.765625 C 149.25 -70.984375 151.703125 -61.96875 151.703125 -50.71875 C 151.703125 -34.769531 145.9375 -22.328125 134.40625 -13.390625 C 122.882812 -4.460938 107.234375 0 87.453125 0 L 22.015625 0 Z M 59.09375 -105.640625 L 80.640625 -105.640625 C 90.679688 -105.640625 97.957031 -107.191406 102.46875 -110.296875 C 106.976562 -113.410156 109.234375 -118.554688 109.234375 -125.734375 C 109.234375 -132.429688 106.78125 -137.234375 101.875 -140.140625 C 96.96875 -143.054688 89.207031 -144.515625 78.59375 -144.515625 L 59.09375 -144.515625 Z M 59.09375 -76.203125 L 59.09375 -30.625 L 83.265625 -30.625 C 93.472656 -30.625 101.007812 -32.578125 105.875 -36.484375 C 110.738281 -40.390625 113.171875 -46.375 113.171875 -54.4375 C 113.171875 -68.945312 102.804688 -76.203125 82.078125 -76.203125 Z M 59.09375 -76.203125 "/></g></g></g><g fill="#5e17eb" fill-opacity="1"><g transform="translate(172.866204, 258.954477)"><g><path d="M 22.015625 -174.90625 L 76.453125 -174.90625 C 101.253906 -174.90625 119.253906 -171.375 130.453125 -164.3125 C 141.660156 -157.257812 147.265625 -146.035156 147.265625 -130.640625 C 147.265625 -120.191406 144.8125 -111.617188 139.90625 -104.921875 C 135.007812 -98.222656 128.492188 -94.195312 120.359375 -92.84375 L 120.359375 -91.640625 C 131.441406 -89.171875 139.4375 -84.546875 144.34375 -77.765625 C 149.25 -70.984375 151.703125 -61.96875 151.703125 -50.71875 C 151.703125 -34.769531 145.9375 -22.328125 134.40625 -13.390625 C 122.882812 -4.460938 107.234375 0 87.453125 0 L 22.015625 0 Z M 59.09375 -105.640625 L 80.640625 -105.640625 C 90.679688 -105.640625 97.957031 -107.191406 102.46875 -110.296875 C 106.976562 -113.410156 109.234375 -118.554688 109.234375 -125.734375 C 109.234375 -132.429688 106.78125 -137.234375 101.875 -140.140625 C 96.96875 -143.054688 89.207031 -144.515625 78.59375 -144.515625 L 59.09375 -144.515625 Z M 59.09375 -76.203125 L 59.09375 -30.625 L 83.265625 -30.625 C 93.472656 -30.625 101.007812 -32.578125 105.875 -36.484375 C 110.738281 -40.390625 113.171875 -46.375 113.171875 -54.4375 C 113.171875 -68.945312 102.804688 -76.203125 82.078125 -76.203125 Z M 59.09375 -76.203125 "/></g></g></g><g fill="#ffffff" fill-opacity="1"><g transform="translate(118.694821, 290.683721)"><g><path d="M 1.359375 -17.421875 L 5.140625 -17.421875 C 7.015625 -17.421875 8.34375 -16.988281 9.125 -16.125 C 9.90625 -15.257812 10.296875 -13.921875 10.296875 -12.109375 L 10.296875 -5.703125 C 10.296875 -3.773438 9.910156 -2.34375 9.140625 -1.40625 C 8.378906 -0.46875 7.109375 0 5.328125 0 L 1.359375 0 Z M 5.15625 -1.734375 C 6 -1.734375 6.609375 -1.898438 6.984375 -2.234375 C 7.367188 -2.566406 7.609375 -3.015625 7.703125 -3.578125 C 7.796875 -4.140625 7.84375 -5 7.84375 -6.15625 L 7.84375 -11.796875 C 7.84375 -12.785156 7.78125 -13.539062 7.65625 -14.0625 C 7.539062 -14.59375 7.289062 -14.984375 6.90625 -15.234375 C 6.519531 -15.484375 5.914062 -15.609375 5.09375 -15.609375 L 3.78125 -15.609375 L 3.78125 -1.734375 Z M 5.15625 -1.734375 "/></g></g></g><g fill="#ffffff" fill-opacity="1"><g transform="translate(130.021198, 290.683721)"><g><path d="M 5.84375 0.1875 C 4.625 0.1875 3.675781 -0.0507812 3 -0.53125 C 2.320312 -1.019531 1.851562 -1.703125 1.59375 -2.578125 C 1.332031 -3.453125 1.203125 -4.550781 1.203125 -5.875 L 1.203125 -17.421875 L 3.53125 -17.421875 L 3.53125 -5.765625 C 3.53125 -4.441406 3.679688 -3.4375 3.984375 -2.75 C 4.296875 -2.0625 4.914062 -1.71875 5.84375 -1.71875 C 6.78125 -1.71875 7.398438 -2.0625 7.703125 -2.75 C 8.015625 -3.4375 8.171875 -4.441406 8.171875 -5.765625 L 8.171875 -17.421875 L 10.46875 -17.421875 L 10.46875 -5.875 C 10.46875 -4.550781 10.335938 -3.453125 10.078125 -2.578125 C 9.828125 -1.703125 9.363281 -1.019531 8.6875 -0.53125 C 8.007812 -0.0507812 7.0625 0.1875 5.84375 0.1875 Z M 5.84375 0.1875 "/></g></g></g><g fill="#ffffff" fill-opacity="1"><g transform="translate(141.691447, 290.683721)"><g><path d="M 4.109375 -17.421875 L 6.453125 -17.421875 L 10.171875 0 L 7.875 0 L 7.078125 -4.390625 L 3.53125 -4.390625 L 2.6875 0 L 0.40625 0 Z M 6.75 -6.125 L 5.28125 -13.96875 L 3.84375 -6.125 Z M 6.75 -6.125 "/></g></g></g><g fill="#ffffff" fill-opacity="1"><g transform="translate(152.265604, 290.683721)"><g><path d="M 1.359375 -17.421875 L 3.78125 -17.421875 L 3.78125 -1.734375 L 8.234375 -1.734375 L 8.234375 0 L 1.359375 0 Z M 1.359375 -17.421875 "/></g></g></g><g fill="#ffffff" fill-opacity="1"><g transform="translate(160.797998, 290.683721)"><g><path d="M 1.484375 -17.421875 L 3.875 -17.421875 L 3.875 0 L 1.484375 0 Z M 1.484375 -17.421875 "/></g></g></g><g fill="#ffffff" fill-opacity="1"><g transform="translate(166.128061, 290.683721)"><g><path d="M 3.265625 -15.609375 L 0.328125 -15.609375 L 0.328125 -17.421875 L 8.5625 -17.421875 L 8.5625 -15.609375 L 5.703125 -15.609375 L 5.703125 0 L 3.265625 0 Z M 3.265625 -15.609375 "/></g></g></g><g fill="#ffffff" fill-opacity="1"><g transform="translate(175.004327, 290.683721)"><g><path d="M 4.015625 -6.15625 L 0.265625 -17.421875 L 2.515625 -17.421875 L 5.1875 -9.015625 L 7.796875 -17.421875 L 10.078125 -17.421875 L 6.34375 -6.15625 L 6.34375 0 L 4.015625 0 Z M 4.015625 -6.15625 "/></g></g></g><g fill="#ffffff" fill-opacity="1"><g transform="translate(185.342072, 290.683721)"><g/></g></g><g fill="#ffffff" fill-opacity="1"><g transform="translate(190.263786, 290.683721)"><g><path d="M 1.359375 -17.421875 L 5.359375 -17.421875 C 6.929688 -17.421875 8.097656 -17.0625 8.859375 -16.34375 C 9.617188 -15.632812 10 -14.535156 10 -13.046875 C 10 -10.828125 9.164062 -9.601562 7.5 -9.375 C 8.53125 -9.132812 9.28125 -8.648438 9.75 -7.921875 C 10.226562 -7.203125 10.46875 -6.21875 10.46875 -4.96875 C 10.46875 -3.40625 10.097656 -2.1875 9.359375 -1.3125 C 8.617188 -0.4375 7.5 0 6 0 L 1.359375 0 Z M 5.21875 -10.140625 C 6.226562 -10.140625 6.925781 -10.359375 7.3125 -10.796875 C 7.695312 -11.234375 7.890625 -11.984375 7.890625 -13.046875 C 7.890625 -13.828125 7.769531 -14.398438 7.53125 -14.765625 C 7.300781 -15.128906 6.945312 -15.359375 6.46875 -15.453125 C 6 -15.554688 5.296875 -15.609375 4.359375 -15.609375 L 3.78125 -15.609375 L 3.78125 -10.140625 Z M 5.421875 -1.734375 C 6.140625 -1.734375 6.691406 -1.84375 7.078125 -2.0625 C 7.472656 -2.289062 7.75 -2.632812 7.90625 -3.09375 C 8.070312 -3.550781 8.15625 -4.175781 8.15625 -4.96875 C 8.15625 -6.082031 7.921875 -6.914062 7.453125 -7.46875 C 6.992188 -8.019531 6.25 -8.296875 5.21875 -8.296875 L 3.78125 -8.296875 L 3.78125 -1.734375 Z M 5.421875 -1.734375 "/></g></g></g><g fill="#ffffff" fill-opacity="1"><g transform="translate(201.525687, 290.683721)"><g><path d="M 5.84375 0.1875 C 4.625 0.1875 3.675781 -0.0507812 3 -0.53125 C 2.320312 -1.019531 1.851562 -1.703125 1.59375 -2.578125 C 1.332031 -3.453125 1.203125 -4.550781 1.203125 -5.875 L 1.203125 -17.421875 L 3.53125 -17.421875 L 3.53125 -5.765625 C 3.53125 -4.441406 3.679688 -3.4375 3.984375 -2.75 C 4.296875 -2.0625 4.914062 -1.71875 5.84375 -1.71875 C 6.78125 -1.71875 7.398438 -2.0625 7.703125 -2.75 C 8.015625 -3.4375 8.171875 -4.441406 8.171875 -5.765625 L 8.171875 -17.421875 L 10.46875 -17.421875 L 10.46875 -5.875 C 10.46875 -4.550781 10.335938 -3.453125 10.078125 -2.578125 C 9.828125 -1.703125 9.363281 -1.019531 8.6875 -0.53125 C 8.007812 -0.0507812 7.0625 0.1875 5.84375 0.1875 Z M 5.84375 0.1875 "/></g></g></g><g fill="#ffffff" fill-opacity="1"><g transform="translate(213.195937, 290.683721)"><g><path d="M 5.46875 0.1875 C 4 0.1875 2.878906 -0.257812 2.109375 -1.15625 C 1.347656 -2.0625 0.925781 -3.300781 0.84375 -4.875 L 2.984375 -5.46875 C 3.054688 -4.34375 3.273438 -3.4375 3.640625 -2.75 C 4.003906 -2.0625 4.613281 -1.71875 5.46875 -1.71875 C 6.09375 -1.71875 6.566406 -1.894531 6.890625 -2.25 C 7.210938 -2.601562 7.375 -3.109375 7.375 -3.765625 C 7.375 -4.484375 7.222656 -5.078125 6.921875 -5.546875 C 6.617188 -6.015625 6.140625 -6.535156 5.484375 -7.109375 L 2.5625 -9.703125 C 1.96875 -10.210938 1.535156 -10.765625 1.265625 -11.359375 C 1.003906 -11.953125 0.875 -12.679688 0.875 -13.546875 C 0.875 -14.816406 1.238281 -15.800781 1.96875 -16.5 C 2.707031 -17.207031 3.707031 -17.5625 4.96875 -17.5625 C 6.34375 -17.5625 7.378906 -17.195312 8.078125 -16.46875 C 8.785156 -15.738281 9.210938 -14.609375 9.359375 -13.078125 L 7.28125 -12.515625 C 7.21875 -13.535156 7.023438 -14.316406 6.703125 -14.859375 C 6.378906 -15.410156 5.800781 -15.6875 4.96875 -15.6875 C 4.351562 -15.6875 3.878906 -15.523438 3.546875 -15.203125 C 3.210938 -14.890625 3.046875 -14.414062 3.046875 -13.78125 C 3.046875 -13.257812 3.128906 -12.820312 3.296875 -12.46875 C 3.472656 -12.125 3.769531 -11.773438 4.1875 -11.421875 L 7.140625 -8.84375 C 7.898438 -8.164062 8.503906 -7.429688 8.953125 -6.640625 C 9.398438 -5.859375 9.625 -4.960938 9.625 -3.953125 C 9.625 -2.679688 9.238281 -1.671875 8.46875 -0.921875 C 7.695312 -0.179688 6.695312 0.1875 5.46875 0.1875 Z M 5.46875 0.1875 "/></g></g></g><g fill="#ffffff" fill-opacity="1"><g transform="translate(223.361734, 290.683721)"><g><path d="M 5.71875 0.1875 C 4 0.1875 2.785156 -0.320312 2.078125 -1.34375 C 1.378906 -2.363281 1.03125 -3.78125 1.03125 -5.59375 L 1.03125 -11.734375 C 1.03125 -13.640625 1.375 -15.085938 2.0625 -16.078125 C 2.75 -17.066406 3.96875 -17.5625 5.71875 -17.5625 C 7.28125 -17.5625 8.398438 -17.140625 9.078125 -16.296875 C 9.765625 -15.453125 10.109375 -14.207031 10.109375 -12.5625 L 10.109375 -11.1875 L 7.796875 -11.1875 L 7.796875 -12.40625 C 7.796875 -13.207031 7.757812 -13.820312 7.6875 -14.25 C 7.625 -14.6875 7.441406 -15.03125 7.140625 -15.28125 C 6.847656 -15.539062 6.378906 -15.671875 5.734375 -15.671875 C 5.078125 -15.671875 4.585938 -15.53125 4.265625 -15.25 C 3.941406 -14.96875 3.726562 -14.582031 3.625 -14.09375 C 3.53125 -13.601562 3.484375 -12.941406 3.484375 -12.109375 L 3.484375 -5.203125 C 3.484375 -4.316406 3.550781 -3.617188 3.6875 -3.109375 C 3.832031 -2.609375 4.066406 -2.25 4.390625 -2.03125 C 4.710938 -1.820312 5.160156 -1.71875 5.734375 -1.71875 C 6.359375 -1.71875 6.816406 -1.851562 7.109375 -2.125 C 7.410156 -2.394531 7.597656 -2.765625 7.671875 -3.234375 C 7.753906 -3.710938 7.796875 -4.363281 7.796875 -5.1875 L 7.796875 -6.46875 L 10.109375 -6.46875 L 10.109375 -5.1875 C 10.109375 -3.445312 9.78125 -2.113281 9.125 -1.1875 C 8.476562 -0.269531 7.34375 0.1875 5.71875 0.1875 Z M 5.71875 0.1875 "/></g></g></g><g fill="#ffffff" fill-opacity="1"><g transform="translate(234.430207, 290.683721)"><g><path d="M 4.109375 -17.421875 L 6.453125 -17.421875 L 10.171875 0 L 7.875 0 L 7.078125 -4.390625 L 3.53125 -4.390625 L 2.6875 0 L 0.40625 0 Z M 6.75 -6.125 L 5.28125 -13.96875 L 3.84375 -6.125 Z M 6.75 -6.125 "/></g></g></g><g fill="#ffffff" fill-opacity="1"><g transform="translate(245.004364, 290.683721)"><g><path d="M 5.46875 0.1875 C 4 0.1875 2.878906 -0.257812 2.109375 -1.15625 C 1.347656 -2.0625 0.925781 -3.300781 0.84375 -4.875 L 2.984375 -5.46875 C 3.054688 -4.34375 3.273438 -3.4375 3.640625 -2.75 C 4.003906 -2.0625 4.613281 -1.71875 5.46875 -1.71875 C 6.09375 -1.71875 6.566406 -1.894531 6.890625 -2.25 C 7.210938 -2.601562 7.375 -3.109375 7.375 -3.765625 C 7.375 -4.484375 7.222656 -5.078125 6.921875 -5.546875 C 6.617188 -6.015625 6.140625 -6.535156 5.484375 -7.109375 L 2.5625 -9.703125 C 1.96875 -10.210938 1.535156 -10.765625 1.265625 -11.359375 C 1.003906 -11.953125 0.875 -12.679688 0.875 -13.546875 C 0.875 -14.816406 1.238281 -15.800781 1.96875 -16.5 C 2.707031 -17.207031 3.707031 -17.5625 4.96875 -17.5625 C 6.34375 -17.5625 7.378906 -17.195312 8.078125 -16.46875 C 8.785156 -15.738281 9.210938 -14.609375 9.359375 -13.078125 L 7.28125 -12.515625 C 7.21875 -13.535156 7.023438 -14.316406 6.703125 -14.859375 C 6.378906 -15.410156 5.800781 -15.6875 4.96875 -15.6875 C 4.351562 -15.6875 3.878906 -15.523438 3.546875 -15.203125 C 3.210938 -14.890625 3.046875 -14.414062 3.046875 -13.78125 C 3.046875 -13.257812 3.128906 -12.820312 3.296875 -12.46875 C 3.472656 -12.125 3.769531 -11.773438 4.1875 -11.421875 L 7.140625 -8.84375 C 7.898438 -8.164062 8.503906 -7.429688 8.953125 -6.640625 C 9.398438 -5.859375 9.625 -4.960938 9.625 -3.953125 C 9.625 -2.679688 9.238281 -1.671875 8.46875 -0.921875 C 7.695312 -0.179688 6.695312 0.1875 5.46875 0.1875 Z M 5.46875 0.1875 "/></g></g></g></svg>